# xmcd CD database file
#
# Track frame offsets:
#	150
#	17402
#	32015
#	43677
#	65278
#	82420
#	95530
#	124462
#
# Disc length: 1941 seconds
#
# Revision: 0
# Processed by: cddbd v1.5.2PL0 Copyright (c) Steve Scherf et al.
# Submitted via: CDex 1.51
#
DISCID=67079308
DTITLE=Julie Burrell - Juliejazz
DYEAR=1900
DGENRE=Jazz
TTITLE0=Summertime
TTITLE1=He Got Me
TTITLE2=Mr. Kicks
TTITLE3=Tending My Own Fire
TTITLE4=Scattin' Man
TTITLE5=Red Cadillac
TTITLE6=Backhand
TTITLE7=They say I'm different
EXTD=
EXTT0=
EXTT1=
EXTT2=
EXTT3=
EXTT4=
EXTT5=
EXTT6=
EXTT7=
PLAYORDER=
